<svg width="97" height="104" viewBox="0 0 97 104" fill="none" xmlns="http://www.w3.org/2000/svg">
<path d="M50.6172 81.2891C49.4922 81.2891 48.8125 81.1484 48.5781 80.8672C48.2969 80.6328 48.25 80.1406 48.4375 79.3906C48.4844 79.1562 48.7188 78.1016 49.1406 76.2266C49.5625 74.3984 50.0781 72.1484 50.6875 69.4766C51.3438 66.8516 52.0234 63.9922 52.7266 60.8984C53.4766 57.8047 54.1797 54.8984 54.8359 52.1797C53.8516 52.2734 53.125 52.2031 52.6562 51.9688C52.1875 51.6875 51.9531 51.3359 51.9531 50.9141C52 50.4453 52.2578 49.9766 52.7266 49.5078C53.2422 49.0391 53.9688 48.6406 54.9062 48.3125C55.0938 48.2188 55.375 48.125 55.75 48.0312C55.9844 47.2344 56.1953 46.4141 56.3828 45.5703C56.5703 44.8672 56.7578 44.1172 56.9453 43.3203C57.1328 42.5234 57.3203 41.75 57.5078 41L62.4297 19.9766C62.7109 18.8984 63.1328 18.1016 63.6953 17.5859C64.3047 17.0234 65.4062 16.5547 67 16.1797C68.3125 15.8516 69.2266 15.7344 69.7422 15.8281C70.2578 15.875 70.4922 16.0156 70.4453 16.25C70.3047 16.7656 69.9531 18.0078 69.3906 19.9766C68.8281 21.9453 68.1484 24.3594 67.3516 27.2188C66.6016 30.0312 65.7812 33.1484 64.8906 36.5703C64 39.9453 63.1328 43.2969 62.2891 46.625C65.1016 46.2031 68.5234 45.8516 72.5547 45.5703C74.1016 45.3828 75.6016 45.2656 77.0547 45.2188C78.5547 45.1719 79.9844 45.1719 81.3438 45.2188C82 42.6875 82.6328 40.1562 83.2422 37.625C83.8984 35.0938 84.5078 32.75 85.0703 30.5938C85.6328 28.4375 86.125 26.5391 86.5469 24.8984C87.0156 23.2109 87.3672 21.9688 87.6016 21.1719C87.8828 20.2813 88.1406 19.5547 88.375 18.9922C88.6562 18.4297 88.9609 17.9844 89.2891 17.6562C89.6641 17.3281 90.0859 17.0938 90.5547 16.9531C91.0234 16.8125 91.5625 16.6953 92.1719 16.6016C92.5 16.6016 92.8984 16.5781 93.3672 16.5312C93.7422 16.5312 94.1875 16.5312 94.7031 16.5312C95.2188 16.4844 95.8047 16.5078 96.4609 16.6016C94.6797 21.3828 93.0156 26.2344 91.4688 31.1562C89.9688 36.0312 88.5625 40.7891 87.25 45.4297C88.0938 45.5234 88.8203 45.5938 89.4297 45.6406C90.0859 45.6875 90.6016 45.7578 90.9766 45.8516C92.1016 46.0391 92.8047 46.3438 93.0859 46.7656C93.4141 47.1875 93.3203 47.7969 92.8047 48.5938L91.9609 49.6484C91.6797 50.0234 91.3281 50.4688 90.9062 50.9844C90.4844 51.4531 89.9453 51.9922 89.2891 52.6016C88.9141 52.4609 88.5156 52.3203 88.0938 52.1797C87.7188 52.0391 87.3438 51.8984 86.9688 51.7578C86.5 51.6172 86.0547 51.4766 85.6328 51.3359C85.3047 52.4609 85 53.5625 84.7188 54.6406C84.4375 55.6719 84.1797 56.7266 83.9453 57.8047C83.3828 60.1016 82.8438 62.4688 82.3281 64.9062C81.9062 67.0156 81.4609 69.3359 80.9922 71.8672C80.5703 74.4453 80.2422 76.9766 80.0078 79.4609C79.6328 79.6484 79.2578 79.7656 78.8828 79.8125C78.5078 79.9062 78.1797 79.9766 77.8984 80.0234C77.5703 80.0703 77.2422 80.1172 76.9141 80.1641H76.8438H76.7031H76.5625C76.375 80.1641 76.1875 80.1641 76 80.1641C75.8125 80.1641 75.625 80.1172 75.4375 80.0234C75.2031 79.9766 74.9688 79.9062 74.7344 79.8125C74.5 79.7188 74.2656 79.625 74.0312 79.5312C73.8438 79.4844 73.6328 79.3906 73.3984 79.25C73.7734 77.7031 74.0547 76.25 74.2422 74.8906C74.4766 73.5312 74.6406 72.3359 74.7344 71.3047C74.875 70.0859 74.9688 69.0078 75.0156 68.0703C75.0625 66.8516 74.9219 65.5156 74.5938 64.0625C74.3125 62.6094 73.8438 61.1797 73.1875 59.7734C72.5781 58.3672 71.8047 57.0547 70.8672 55.8359C69.9766 54.6172 68.9453 53.5859 67.7734 52.7422C66.6016 51.9453 65.4766 51.4297 64.3984 51.1953C63.3672 50.9609 62.3125 50.8906 61.2344 50.9844C60.9062 52.3906 60.6016 53.75 60.3203 55.0625C60.0391 56.375 59.8047 57.6406 59.6172 58.8594C59.1016 61.5781 58.6094 64.2266 58.1406 66.8047C57.7656 69.0078 57.3672 71.2812 56.9453 73.625C56.5703 76.0156 56.2891 78.0547 56.1016 79.7422C55.3516 80.1172 54.6484 80.3984 53.9922 80.5859C53.3359 80.8203 52.75 80.9844 52.2344 81.0781C51.6719 81.2188 51.1328 81.2891 50.6172 81.2891ZM78.4609 50.0703C76.8203 49.8828 75.25 49.7891 73.75 49.7891C72.2969 49.7422 71.0078 49.7188 69.8828 49.7188C70.8203 50.2344 71.6406 50.9141 72.3438 51.7578C73.0938 52.6016 73.8672 53.5625 74.6641 54.6406C75.4141 55.625 76.0234 56.7031 76.4922 57.875C76.9609 59.0469 77.3594 60.1719 77.6875 61.25C78.0625 59.2812 78.4609 57.3594 78.8828 55.4844C79.3047 53.6094 79.7031 51.8516 80.0781 50.2109C79.7969 50.1641 79.5156 50.1406 79.2344 50.1406C79 50.0938 78.7422 50.0703 78.4609 50.0703Z" fill="black"/>
<path d="M19.6016 44.0938C17.2109 44.0938 15.2656 43.8359 13.7656 43.3203C12.3125 42.8047 11.3281 42.1484 10.8125 41.3516C10.5781 41.0234 10.3672 40.5312 10.1797 39.875C9.99219 39.2188 10.0625 38.4922 10.3906 37.6953C11.0469 38.2109 11.75 38.6094 12.5 38.8906C13.2969 39.125 14.0234 39.2891 14.6797 39.3828C15.4766 39.5234 16.25 39.5938 17 39.5938C18.4062 39.5938 19.7656 39.4766 21.0781 39.2422C22.4375 39.0078 23.7734 38.6797 25.0859 38.2578C25.6484 35.4453 26.1875 32.9141 26.7031 30.6641C27.2656 28.4141 27.8984 26.5859 28.6016 25.1797C29.3516 23.6328 30.125 22.25 30.9219 21.0312C31.7656 19.7656 32.6797 18.7109 33.6641 17.8672C34.6953 16.9766 35.8203 16.2969 37.0391 15.8281C38.2578 15.3594 39.6641 15.125 41.2578 15.125C42.4297 15.125 43.3438 15.3594 44 15.8281C44.7031 16.2969 45.2188 16.8828 45.5469 17.5859C45.9219 18.2891 46.1328 19.0625 46.1797 19.9062C46.2734 20.7031 46.3203 21.4531 46.3203 22.1562C46.3203 23.7031 45.9453 25.3906 45.1953 27.2188C44.4453 29.0469 43.3906 30.8516 42.0312 32.6328C40.6719 34.4141 39.0312 36.1016 37.1094 37.6953C35.2344 39.2891 33.125 40.6016 30.7812 41.6328C29.9844 44.7266 29.1875 47.7969 28.3906 50.8438C27.6406 53.8438 26.8906 56.3281 26.1406 58.2969C25.4844 60.125 24.6406 62.1641 23.6094 64.4141C22.625 66.6641 21.4062 68.8203 19.9531 70.8828C20.8438 71.4453 21.7344 72.0312 22.625 72.6406C23.5625 73.25 24.5 73.7891 25.4375 74.2578C26.375 74.7734 27.3125 75.1953 28.25 75.5234C29.2344 75.8516 30.2656 76.0156 31.3438 76.0156C32.4688 75.9688 33.5703 75.8047 34.6484 75.5234C35.5859 75.2891 36.5703 74.8906 37.6016 74.3281C38.6328 73.8125 39.5938 73.0625 40.4844 72.0781C40.8125 72.6406 40.9062 73.4844 40.7656 74.6094C40.6719 75.7344 40.3203 76.8594 39.7109 77.9844C39.1016 79.1094 38.2344 80.0938 37.1094 80.9375C35.9844 81.7812 34.5781 82.2031 32.8906 82.2031C31.1094 82.2031 29.4453 81.9453 27.8984 81.4297C26.3516 80.9609 24.8984 80.375 23.5391 79.6719C22.1797 78.9688 20.8906 78.1953 19.6719 77.3516C18.5 76.5547 17.3984 75.8047 16.3672 75.1016C14.9609 76.4609 13.4141 77.5625 11.7266 78.4062C10.0391 79.25 8.16406 79.6719 6.10156 79.6719C4.46094 79.6719 3.14844 79.2031 2.16406 78.2656C1.17969 77.375 0.734375 76.1562 0.828125 74.6094C0.875 74.0469 1.03906 73.3672 1.32031 72.5703C1.60156 71.8203 2.14062 71.0938 2.9375 70.3906C3.6875 69.6875 4.74219 69.0781 6.10156 68.5625C7.46094 68.0938 9.21875 67.8594 11.375 67.8594C12.1719 67.8594 12.9219 67.9297 13.625 68.0703C14.375 68.2578 15.1016 68.4688 15.8047 68.7031C16.3203 67.7656 16.8359 66.6875 17.3516 65.4688C17.8672 64.25 18.4297 62.8672 19.0391 61.3203C20.1172 58.3672 21.0547 55.4141 21.8516 52.4609C22.6484 49.4609 23.3281 46.5547 23.8906 43.7422C23.2344 43.8828 22.5312 43.9766 21.7812 44.0234C21.0781 44.0703 20.3516 44.0938 19.6016 44.0938ZM7.92969 75.875C8.53906 75.6406 9.24219 75.4062 10.0391 75.1719C10.8359 74.9375 11.75 74.2812 12.7812 73.2031C12.0781 72.9688 11.5391 72.8516 11.1641 72.8516C9.47656 72.8516 8.25781 73.0859 7.50781 73.5547C6.71094 74.0703 6.3125 74.5625 6.3125 75.0312C6.3125 75.3594 6.45312 75.5938 6.73438 75.7344C7.01562 75.9219 7.41406 75.9688 7.92969 75.875ZM34.5078 26.9375C34.2734 27.6406 33.9688 28.6719 33.5938 30.0312C33.2188 31.3906 32.8203 32.9609 32.3984 34.7422C34.9297 33.1016 36.9453 31.2266 38.4453 29.1172C39.9922 27.0078 40.7656 24.8984 40.7656 22.7891C40.7656 21.5234 40.3906 20.8906 39.6406 20.8906C38.9844 20.8906 38.1406 21.4063 37.1094 22.4375C36.0781 23.4219 35.2109 24.9219 34.5078 26.9375Z" fill="black"/>
</svg>
