<svg width="360" height="84" viewBox="0 0 360 84" fill="none" xmlns="http://www.w3.org/2000/svg">
<path d="M19.6016 44.0938C17.2109 44.0938 15.2656 43.8359 13.7656 43.3203C12.3125 42.8047 11.3281 42.1484 10.8125 41.3516C10.5781 41.0234 10.3672 40.5312 10.1797 39.875C9.99219 39.2188 10.0625 38.4922 10.3906 37.6953C11.0469 38.2109 11.75 38.6094 12.5 38.8906C13.2969 39.125 14.0234 39.2891 14.6797 39.3828C15.4766 39.5234 16.25 39.5938 17 39.5938C18.4062 39.5938 19.7656 39.4766 21.0781 39.2422C22.4375 39.0078 23.7734 38.6797 25.0859 38.2578C25.6484 35.4453 26.1875 32.9141 26.7031 30.6641C27.2656 28.4141 27.8984 26.5859 28.6016 25.1797C29.3516 23.6328 30.125 22.25 30.9219 21.0312C31.7656 19.7656 32.6797 18.7109 33.6641 17.8672C34.6953 16.9766 35.8203 16.2969 37.0391 15.8281C38.2578 15.3594 39.6641 15.125 41.2578 15.125C42.4297 15.125 43.3438 15.3594 44 15.8281C44.7031 16.2969 45.2188 16.8828 45.5469 17.5859C45.9219 18.2891 46.1328 19.0625 46.1797 19.9062C46.2734 20.7031 46.3203 21.4531 46.3203 22.1562C46.3203 23.7031 45.9453 25.3906 45.1953 27.2188C44.4453 29.0469 43.3906 30.8516 42.0312 32.6328C40.6719 34.4141 39.0312 36.1016 37.1094 37.6953C35.2344 39.2891 33.125 40.6016 30.7812 41.6328C29.9844 44.7266 29.1875 47.7969 28.3906 50.8438C27.6406 53.8438 26.8906 56.3281 26.1406 58.2969C25.4844 60.125 24.6406 62.1641 23.6094 64.4141C22.625 66.6641 21.4062 68.8203 19.9531 70.8828C20.8438 71.4453 21.7344 72.0312 22.625 72.6406C23.5625 73.25 24.5 73.7891 25.4375 74.2578C26.375 74.7734 27.3125 75.1953 28.25 75.5234C29.2344 75.8516 30.2656 76.0156 31.3438 76.0156C32.4688 75.9688 33.5703 75.8047 34.6484 75.5234C35.5859 75.2891 36.5703 74.8906 37.6016 74.3281C38.6328 73.8125 39.5938 73.0625 40.4844 72.0781C40.8125 72.6406 40.9062 73.4844 40.7656 74.6094C40.6719 75.7344 40.3203 76.8594 39.7109 77.9844C39.1016 79.1094 38.2344 80.0938 37.1094 80.9375C35.9844 81.7812 34.5781 82.2031 32.8906 82.2031C31.1094 82.2031 29.4453 81.9453 27.8984 81.4297C26.3516 80.9609 24.8984 80.375 23.5391 79.6719C22.1797 78.9688 20.8906 78.1953 19.6719 77.3516C18.5 76.5547 17.3984 75.8047 16.3672 75.1016C14.9609 76.4609 13.4141 77.5625 11.7266 78.4062C10.0391 79.25 8.16406 79.6719 6.10156 79.6719C4.46094 79.6719 3.14844 79.2031 2.16406 78.2656C1.17969 77.375 0.734375 76.1562 0.828125 74.6094C0.875 74.0469 1.03906 73.3672 1.32031 72.5703C1.60156 71.8203 2.14062 71.0938 2.9375 70.3906C3.6875 69.6875 4.74219 69.0781 6.10156 68.5625C7.46094 68.0938 9.21875 67.8594 11.375 67.8594C12.1719 67.8594 12.9219 67.9297 13.625 68.0703C14.375 68.2578 15.1016 68.4688 15.8047 68.7031C16.3203 67.7656 16.8359 66.6875 17.3516 65.4688C17.8672 64.25 18.4297 62.8672 19.0391 61.3203C20.1172 58.3672 21.0547 55.4141 21.8516 52.4609C22.6484 49.4609 23.3281 46.5547 23.8906 43.7422C23.2344 43.8828 22.5312 43.9766 21.7812 44.0234C21.0781 44.0703 20.3516 44.0938 19.6016 44.0938ZM7.92969 75.875C8.53906 75.6406 9.24219 75.4062 10.0391 75.1719C10.8359 74.9375 11.75 74.2812 12.7812 73.2031C12.0781 72.9688 11.5391 72.8516 11.1641 72.8516C9.47656 72.8516 8.25781 73.0859 7.50781 73.5547C6.71094 74.0703 6.3125 74.5625 6.3125 75.0312C6.3125 75.3594 6.45312 75.5938 6.73438 75.7344C7.01562 75.9219 7.41406 75.9688 7.92969 75.875ZM34.5078 26.9375C34.2734 27.6406 33.9688 28.6719 33.5938 30.0312C33.2188 31.3906 32.8203 32.9609 32.3984 34.7422C34.9297 33.1016 36.9453 31.2266 38.4453 29.1172C39.9922 27.0078 40.7656 24.8984 40.7656 22.7891C40.7656 21.5234 40.3906 20.8906 39.6406 20.8906C38.9844 20.8906 38.1406 21.4063 37.1094 22.4375C36.0781 23.4219 35.2109 24.9219 34.5078 26.9375ZM52.1562 69.125C50.375 69.125 48.9219 68.8438 47.7969 68.2812C46.6719 67.7188 45.7812 67.0391 45.125 66.2422C44.5156 65.3984 44.0703 64.5078 43.7891 63.5703C43.5547 62.5859 43.4375 61.6953 43.4375 60.8984C43.4375 59.4922 43.5547 58.0156 43.7891 56.4688C44.0234 54.875 44.3047 53.4219 44.6328 52.1094C44.9609 50.75 45.2422 49.6016 45.4766 48.6641C45.7578 47.7266 45.9453 47.1406 46.0391 46.9062C46.4609 45.5469 47 44.375 47.6562 43.3906C48.3594 42.3594 49.3203 41.6562 50.5391 41.2812C51.0078 41.1875 51.5 41.0938 52.0156 41C52.4375 40.9531 52.8594 40.9297 53.2812 40.9297C53.75 40.9297 54.1719 41 54.5469 41.1406C53.2812 44.375 52.2734 47.0703 51.5234 49.2266C50.8203 51.3828 50.2812 53.1406 49.9062 54.5C49.4844 56.0469 49.2266 57.2891 49.1328 58.2266C48.8984 60.3359 49.0859 61.9297 49.6953 63.0078C50.3047 64.0859 51.5469 64.625 53.4219 64.625C54.6406 64.625 55.8125 64.1797 56.9375 63.2891C58.0625 62.3516 59.0938 61.1562 60.0312 59.7031C59.8906 58.9531 59.8203 58.1797 59.8203 57.3828C59.8203 55.8828 59.9375 54.4297 60.1719 53.0234C60.4531 51.5703 60.7578 50.2344 61.0859 49.0156C61.4609 47.75 61.8359 46.625 62.2109 45.6406C62.6328 44.6562 62.9844 43.8828 63.2656 43.3203C63.7812 42.1953 64.25 41.5156 64.6719 41.2812C65.0938 41 65.7734 40.8359 66.7109 40.7891C67.0859 40.7422 67.3906 40.7422 67.625 40.7891C67.9062 40.7891 68.1406 40.8125 68.3281 40.8594C68.8906 41 69.1719 41.2812 69.1719 41.7031C69.1719 42.4531 69.125 43.5781 69.0312 45.0781C68.9375 46.5781 68.6562 48.125 68.1875 49.7188C67.8594 51.0312 67.5312 52.1562 67.2031 53.0938C66.9219 53.9844 66.6406 54.7578 66.3594 55.4141C66.0781 56.0234 65.7969 56.5391 65.5156 56.9609C65.2344 57.3359 64.9766 57.6875 64.7422 58.0156C64.8359 59.4219 64.9531 60.5469 65.0938 61.3906C65.2344 62.2344 65.3984 62.8906 65.5859 63.3594C65.8203 63.7812 66.0781 64.0859 66.3594 64.2734C66.6875 64.4141 67.0391 64.4844 67.4141 64.4844C68.0703 64.4844 68.8438 64.1797 69.7344 63.5703C70.625 62.9141 71.5391 62.1172 72.4766 61.1797C73.4609 60.1953 74.4219 59.1406 75.3594 58.0156C76.3438 56.8438 77.2344 55.7422 78.0312 54.7109C78.8281 53.6797 79.5078 52.7891 80.0703 52.0391C80.6328 51.2422 80.9844 50.75 81.125 50.5625C81.4531 50.1406 81.7578 49.8828 82.0391 49.7891C82.3672 49.6953 82.625 49.7422 82.8125 49.9297C83 50.0703 83.0938 50.3281 83.0938 50.7031C83.1406 51.0312 83.0469 51.4062 82.8125 51.8281C81.875 53.6094 80.7031 55.5078 79.2969 57.5234C77.9375 59.4922 76.4609 61.3203 74.8672 63.0078C73.3203 64.6953 71.75 66.1016 70.1562 67.2266C68.5625 68.3516 67.0625 68.9141 65.6562 68.9141C64.3906 68.9141 63.3828 68.4922 62.6328 67.6484C61.9297 66.7578 61.3203 65.4922 60.8047 63.8516C59.7266 65.5391 58.4609 66.8516 57.0078 67.7891C55.5547 68.6797 53.9375 69.125 52.1562 69.125ZM113.258 54.0078C112.18 55.7891 110.938 57.6406 109.531 59.5625C108.172 61.4375 106.719 63.1719 105.172 64.7656C103.625 66.3125 102.031 67.6016 100.391 68.6328C98.75 69.6641 97.1094 70.1797 95.4688 70.1797C93.8281 70.1797 92.6328 69.6172 91.8828 68.4922C91.1797 67.4141 90.8516 66.1953 90.8984 64.8359C90.8984 64.2266 90.9453 63.6875 91.0391 63.2188C91.1797 62.75 91.3203 62.3281 91.4609 61.9531C91.6016 61.5781 91.7422 61.2031 91.8828 60.8281C92.0703 60.4062 92.2344 59.9375 92.375 59.4219C92.5625 58.8125 92.5625 58.2734 92.375 57.8047C92.2344 57.2891 92.0469 56.8438 91.8125 56.4688C91.3906 56.9375 90.8984 57.3594 90.3359 57.7344C89.8203 58.0625 89.1641 58.2266 88.3672 58.2266C87.8047 58.2266 87.2891 57.9688 86.8203 57.4531C86.3516 56.8906 86.1172 56.2109 86.1172 55.4141C86.1172 54.7578 86.2578 54.2188 86.5391 53.7969C86.8672 53.375 87.2188 53.0469 87.5938 52.8125C88.0156 52.5781 88.4375 52.4141 88.8594 52.3203C89.2812 52.2266 89.6328 52.1797 89.9141 52.1797C90.0547 52.1797 90.3359 52.2031 90.7578 52.25C91.2266 52.2969 91.7188 52.3672 92.2344 52.4609C93.9219 51.1016 95.1172 49.8828 95.8203 48.8047C96.5703 47.6797 96.6406 46.6719 96.0312 45.7812C95.6562 45.1719 95.1875 44.8672 94.625 44.8672C94.0625 44.8203 93.4766 44.9609 92.8672 45.2891C92.2578 45.5703 91.6484 45.9453 91.0391 46.4141C90.4766 46.8828 89.9609 47.3281 89.4922 47.75C88.5547 48.6875 87.5 49.8125 86.3281 51.125C85.2031 52.3906 84.2656 53.4453 83.5156 54.2891C83.1875 55.6953 82.8594 57.1719 82.5312 58.7188C82.25 60.0781 81.9219 61.625 81.5469 63.3594C81.2188 65.0469 80.8672 66.8047 80.4922 68.6328C80.2109 68.7734 79.9062 68.8672 79.5781 68.9141C79.2969 69.0078 79.0391 69.0781 78.8047 69.125C78.5234 69.1719 78.2422 69.1953 77.9609 69.1953C77.5859 69.1953 77.2344 69.1719 76.9062 69.125C76.5781 69.125 76.3203 69.0078 76.1328 68.7734C75.8984 68.5859 75.7812 68.2578 75.7812 67.7891C75.7344 67.3203 75.8516 66.6641 76.1328 65.8203C76.5078 64.6016 76.9766 62.9844 77.5391 60.9688C78.1016 58.9062 78.6875 56.6562 79.2969 54.2188C79.9062 51.7812 80.5156 49.25 81.125 46.625C81.7812 43.9531 82.3906 41.4219 82.9531 39.0312C83.5156 36.5938 83.9844 34.4141 84.3594 32.4922C84.7812 30.5234 85.0859 28.9766 85.2734 27.8516C85.4141 26.6328 85.5547 25.4609 85.6953 24.3359C85.7891 23.3984 85.8359 22.4844 85.8359 21.5938C85.8828 20.6562 85.8359 19.9531 85.6953 19.4844C85.9297 19.25 86.2578 19.0391 86.6797 18.8516C87.1016 18.6641 87.5703 18.5234 88.0859 18.4297C88.6016 18.2891 89.2109 18.1719 89.9141 18.0781C90.7109 17.9844 91.3672 17.9609 91.8828 18.0078C92.4453 18.0547 92.8438 18.2891 93.0781 18.7109C93.3594 19.1797 93.4062 19.9766 93.2188 21.1016C93.0781 22.1797 92.75 23.7031 92.2344 25.6719C91.5781 28.2031 90.8984 30.5234 90.1953 32.6328C89.5391 34.6953 88.8828 36.6406 88.2266 38.4688C87.6172 40.2969 87.0078 42.0781 86.3984 43.8125C85.8359 45.5 85.3203 47.2344 84.8516 49.0156C85.7891 47.6562 86.9609 46.2266 88.3672 44.7266C89.7734 43.1797 91.3672 41.9141 93.1484 40.9297C95.0234 39.9453 96.5703 39.4531 97.7891 39.4531C99.2891 39.4531 100.367 39.9688 101.023 41C101.68 41.9844 101.984 43.1562 101.938 44.5156C101.891 45.5938 101.609 46.6016 101.094 47.5391C100.625 48.4297 100.039 49.2734 99.3359 50.0703C98.6328 50.8203 97.8828 51.4766 97.0859 52.0391C96.2891 52.6016 95.6094 53.0703 95.0469 53.4453C95.7031 53.8203 96.2656 54.3359 96.7344 54.9922C97.25 55.6016 97.4844 56.375 97.4375 57.3125C97.3906 58.5781 97.1328 59.7031 96.6641 60.6875C96.2422 61.625 96.0312 62.4922 96.0312 63.2891C96.0781 63.8984 96.1953 64.3438 96.3828 64.625C96.6172 64.9062 97.0859 65.0469 97.7891 65.0469C99.0547 65.0469 100.367 64.5078 101.727 63.4297C103.133 62.3516 104.445 61.1094 105.664 59.7031C106.883 58.2969 108.008 56.9141 109.039 55.5547C110.07 54.1484 110.867 53.1172 111.43 52.4609C112.227 51.6172 112.883 51.4062 113.398 51.8281C113.961 52.2031 113.914 52.9297 113.258 54.0078ZM144.969 54.0078C144.312 54.9453 143.469 56.1172 142.438 57.5234C141.406 58.8828 140.328 60.2656 139.203 61.6719C138.125 63.0312 137.047 64.2969 135.969 65.4688C134.938 66.5938 134.07 67.3906 133.367 67.8594C132.898 68.1406 132.359 68.375 131.75 68.5625C131.141 68.75 130.508 68.8672 129.852 68.9141C129.242 68.9609 128.656 68.9141 128.094 68.7734C127.531 68.6797 127.039 68.4922 126.617 68.2109C126.195 67.8828 125.844 67.4141 125.562 66.8047C125.328 66.2891 125.094 65.6094 124.859 64.7656C124.672 63.9219 124.602 62.8672 124.648 61.6016C123.523 63.4766 122.281 64.9297 120.922 65.9609C119.562 66.9453 118.273 67.6719 117.055 68.1406C115.648 68.6562 114.242 68.9609 112.836 69.0547C112.18 69.0547 111.477 68.8203 110.727 68.3516C109.977 67.9297 109.344 67.25 108.828 66.3125C108.312 65.3281 107.984 64.0859 107.844 62.5859C107.703 61.0391 107.891 59.2109 108.406 57.1016C109.062 54.2422 110.094 51.6406 111.5 49.2969C112.953 46.9531 114.523 44.9609 116.211 43.3203C117.898 41.6328 119.562 40.3672 121.203 39.5234C122.844 38.6797 124.203 38.3047 125.281 38.3984C126.547 38.6328 127.578 39.0078 128.375 39.5234C129.031 39.9922 129.453 40.6953 129.641 41.6328C129.875 42.5234 129.5 43.7188 128.516 45.2188C129.172 45.0781 129.711 44.9844 130.133 44.9375C130.602 44.8906 130.953 44.8672 131.188 44.8672C131.469 44.8672 131.656 44.8906 131.75 44.9375C131.797 45.0312 131.82 45.2422 131.82 45.5703C131.82 45.8516 131.75 46.3906 131.609 47.1875C131.469 47.9844 131.258 49.0625 130.977 50.4219C130.695 51.7812 130.32 53.5391 129.852 55.6953C129.758 56.1172 129.664 56.5156 129.57 56.8906C129.523 57.2188 129.453 57.5703 129.359 57.9453C129.312 58.2734 129.242 58.6719 129.148 59.1406C129.055 59.6094 128.938 60.1953 128.797 60.8984C128.75 61.3203 128.727 61.7891 128.727 62.3047C128.773 62.7734 128.867 63.2188 129.008 63.6406C129.148 64.0625 129.359 64.4141 129.641 64.6953C129.969 64.9297 130.414 65.0469 130.977 65.0469C131.445 65.0469 132.055 64.7656 132.805 64.2031C133.555 63.5938 134.352 62.8438 135.195 61.9531C136.039 61.0156 136.906 60.0078 137.797 58.9297C138.734 57.8047 139.602 56.7266 140.398 55.6953C141.195 54.6641 141.898 53.75 142.508 52.9531C143.164 52.1562 143.633 51.5703 143.914 51.1953C144.289 50.7734 144.664 50.5391 145.039 50.4922C145.414 50.3984 145.695 50.4922 145.883 50.7734C146.07 51.0547 146.094 51.4766 145.953 52.0391C145.859 52.6016 145.531 53.2578 144.969 54.0078ZM124.367 57.1016C124.602 56.1641 124.883 55.0625 125.211 53.7969C125.539 52.5312 125.82 51.3125 126.055 50.1406C126.289 48.9688 126.453 48.0078 126.547 47.2578C126.688 46.4609 126.664 46.0859 126.477 46.1328C126.242 46.1797 125.984 46.25 125.703 46.3438C125.469 46.4375 125.164 46.5078 124.789 46.5547C124.414 46.6016 124.039 46.6719 123.664 46.7656C124.039 46.0156 124.25 45.4062 124.297 44.9375C124.391 44.4219 124.414 44.0234 124.367 43.7422C124.32 43.4141 124.227 43.1562 124.086 42.9688C123.57 42.5469 122.656 42.8984 121.344 44.0234C120.078 45.1016 118.602 47.1172 116.914 50.0703C116.211 51.2891 115.648 52.6016 115.227 54.0078C114.805 55.3672 114.5 56.6562 114.312 57.875C114.172 59.0938 114.148 60.1719 114.242 61.1094C114.336 62 114.523 62.5859 114.805 62.8672C115.32 63.3828 115.906 63.6406 116.562 63.6406C117.219 63.5938 117.875 63.4062 118.531 63.0781C119.234 62.7031 119.914 62.2344 120.57 61.6719C121.273 61.1094 121.883 60.5234 122.398 59.9141C122.961 59.3047 123.406 58.7422 123.734 58.2266C124.109 57.7109 124.32 57.3359 124.367 57.1016ZM150.172 65.6094C150.453 65.7969 150.805 65.8906 151.227 65.8906C151.695 65.8906 152.141 65.7969 152.562 65.6094C153.031 65.4219 153.453 65.1641 153.828 64.8359C154.25 64.5078 154.555 64.0859 154.742 63.5703C154.93 63.0547 154.93 62.3281 154.742 61.3906C154.555 60.4062 154.25 59.375 153.828 58.2969C153.453 57.1719 153.031 56.0469 152.562 54.9219C152.094 53.7969 151.695 52.7656 151.367 51.8281C151.086 51.125 150.852 50.4688 150.664 49.8594C150.477 49.3438 150.289 48.8516 150.102 48.3828C149.961 47.8672 149.844 47.5156 149.75 47.3281C149.516 47.7031 149.094 48.3125 148.484 49.1562C147.922 50 147.289 50.8906 146.586 51.8281C145.93 52.7188 145.297 53.5625 144.688 54.3594C144.078 55.1094 143.656 55.625 143.422 55.9062C143.047 56.3281 142.672 56.5859 142.297 56.6797C141.969 56.7266 141.688 56.6562 141.453 56.4688C141.219 56.2344 141.078 55.9297 141.031 55.5547C141.031 55.1328 141.219 54.6406 141.594 54.0781C141.875 53.7031 142.297 53.1172 142.859 52.3203C143.422 51.4766 143.984 50.6328 144.547 49.7891C145.109 48.8984 145.625 48.125 146.094 47.4688C146.562 46.7656 146.82 46.3438 146.867 46.2031C146.961 45.8281 146.82 45.3359 146.445 44.7266C146.117 44.1172 146.07 43.4141 146.305 42.6172C146.492 41.9609 146.914 41.2109 147.57 40.3672C148.227 39.4766 149 38.6797 149.891 37.9766C150.781 37.2734 151.695 36.7578 152.633 36.4297C153.57 36.0547 154.414 36.0547 155.164 36.4297C155.773 36.8047 156.266 37.2266 156.641 37.6953C157.016 38.1172 157.156 38.5625 157.062 39.0312C156.969 39.2656 156.828 39.5703 156.641 39.9453C156.453 40.3203 156.172 40.7891 155.797 41.3516C155.422 41.8672 154.883 42.5469 154.18 43.3906C154.32 44.4688 154.508 45.4531 154.742 46.3438C155.023 47.2344 155.281 48.0078 155.516 48.6641C155.797 49.4609 156.102 50.1875 156.43 50.8438C156.852 51.6875 157.297 52.5547 157.766 53.4453C158.234 54.3359 158.656 55.2266 159.031 56.1172C159.406 56.9609 159.711 57.7578 159.945 58.5078C160.18 59.2578 160.25 59.8906 160.156 60.4062C160.016 61.2031 159.594 62.1641 158.891 63.2891C158.234 64.4141 157.391 65.5156 156.359 66.5938C155.375 67.625 154.227 68.5156 152.914 69.2656C151.648 70.0156 150.312 70.3906 148.906 70.3906C147.922 70.3906 146.961 70.0859 146.023 69.4766C145.133 68.8672 144.359 68.1641 143.703 67.3672C143.094 66.5234 142.625 65.7031 142.297 64.9062C142.016 64.1094 141.992 63.5 142.227 63.0781C142.508 62.5156 142.766 62.0703 143 61.7422C143.234 61.4141 143.586 61.0391 144.055 60.6172C144.242 60.4766 144.477 60.3125 144.758 60.125C144.992 59.9844 145.32 59.8438 145.742 59.7031C146.164 59.5625 146.656 59.3984 147.219 59.2109C147.688 60.6641 148.109 61.8125 148.484 62.6562C148.859 63.4531 149.164 64.0859 149.398 64.5547C149.68 65.0703 149.938 65.4219 150.172 65.6094ZM187.367 81.2891C186.242 81.2891 185.562 81.1484 185.328 80.8672C185.047 80.6328 185 80.1406 185.188 79.3906C185.234 79.1562 185.469 78.1016 185.891 76.2266C186.312 74.3984 186.828 72.1484 187.438 69.4766C188.094 66.8516 188.773 63.9922 189.477 60.8984C190.227 57.8047 190.93 54.8984 191.586 52.1797C190.602 52.2734 189.875 52.2031 189.406 51.9688C188.938 51.6875 188.703 51.3359 188.703 50.9141C188.75 50.4453 189.008 49.9766 189.477 49.5078C189.992 49.0391 190.719 48.6406 191.656 48.3125C191.844 48.2188 192.125 48.125 192.5 48.0312C192.734 47.2344 192.945 46.4141 193.133 45.5703C193.32 44.8672 193.508 44.1172 193.695 43.3203C193.883 42.5234 194.07 41.75 194.258 41L199.18 19.9766C199.461 18.8984 199.883 18.1016 200.445 17.5859C201.055 17.0234 202.156 16.5547 203.75 16.1797C205.062 15.8516 205.977 15.7344 206.492 15.8281C207.008 15.875 207.242 16.0156 207.195 16.25C207.055 16.7656 206.703 18.0078 206.141 19.9766C205.578 21.9453 204.898 24.3594 204.102 27.2188C203.352 30.0312 202.531 33.1484 201.641 36.5703C200.75 39.9453 199.883 43.2969 199.039 46.625C201.852 46.2031 205.273 45.8516 209.305 45.5703C210.852 45.3828 212.352 45.2656 213.805 45.2188C215.305 45.1719 216.734 45.1719 218.094 45.2188C218.75 42.6875 219.383 40.1562 219.992 37.625C220.648 35.0938 221.258 32.75 221.82 30.5938C222.383 28.4375 222.875 26.5391 223.297 24.8984C223.766 23.2109 224.117 21.9688 224.352 21.1719C224.633 20.2813 224.891 19.5547 225.125 18.9922C225.406 18.4297 225.711 17.9844 226.039 17.6562C226.414 17.3281 226.836 17.0938 227.305 16.9531C227.773 16.8125 228.312 16.6953 228.922 16.6016C229.25 16.6016 229.648 16.5781 230.117 16.5312C230.492 16.5312 230.938 16.5312 231.453 16.5312C231.969 16.4844 232.555 16.5078 233.211 16.6016C231.43 21.3828 229.766 26.2344 228.219 31.1562C226.719 36.0312 225.312 40.7891 224 45.4297C224.844 45.5234 225.57 45.5938 226.18 45.6406C226.836 45.6875 227.352 45.7578 227.727 45.8516C228.852 46.0391 229.555 46.3438 229.836 46.7656C230.164 47.1875 230.07 47.7969 229.555 48.5938L228.711 49.6484C228.43 50.0234 228.078 50.4688 227.656 50.9844C227.234 51.4531 226.695 51.9922 226.039 52.6016C225.664 52.4609 225.266 52.3203 224.844 52.1797C224.469 52.0391 224.094 51.8984 223.719 51.7578C223.25 51.6172 222.805 51.4766 222.383 51.3359C222.055 52.4609 221.75 53.5625 221.469 54.6406C221.188 55.6719 220.93 56.7266 220.695 57.8047C220.133 60.1016 219.594 62.4688 219.078 64.9062C218.656 67.0156 218.211 69.3359 217.742 71.8672C217.32 74.4453 216.992 76.9766 216.758 79.4609C216.383 79.6484 216.008 79.7656 215.633 79.8125C215.258 79.9062 214.93 79.9766 214.648 80.0234C214.32 80.0703 213.992 80.1172 213.664 80.1641H213.594H213.453H213.312C213.125 80.1641 212.938 80.1641 212.75 80.1641C212.562 80.1641 212.375 80.1172 212.188 80.0234C211.953 79.9766 211.719 79.9062 211.484 79.8125C211.25 79.7188 211.016 79.625 210.781 79.5312C210.594 79.4844 210.383 79.3906 210.148 79.25C210.523 77.7031 210.805 76.25 210.992 74.8906C211.227 73.5312 211.391 72.3359 211.484 71.3047C211.625 70.0859 211.719 69.0078 211.766 68.0703C211.812 66.8516 211.672 65.5156 211.344 64.0625C211.062 62.6094 210.594 61.1797 209.938 59.7734C209.328 58.3672 208.555 57.0547 207.617 55.8359C206.727 54.6172 205.695 53.5859 204.523 52.7422C203.352 51.9453 202.227 51.4297 201.148 51.1953C200.117 50.9609 199.062 50.8906 197.984 50.9844C197.656 52.3906 197.352 53.75 197.07 55.0625C196.789 56.375 196.555 57.6406 196.367 58.8594C195.852 61.5781 195.359 64.2266 194.891 66.8047C194.516 69.0078 194.117 71.2812 193.695 73.625C193.32 76.0156 193.039 78.0547 192.852 79.7422C192.102 80.1172 191.398 80.3984 190.742 80.5859C190.086 80.8203 189.5 80.9844 188.984 81.0781C188.422 81.2188 187.883 81.2891 187.367 81.2891ZM215.211 50.0703C213.57 49.8828 212 49.7891 210.5 49.7891C209.047 49.7422 207.758 49.7188 206.633 49.7188C207.57 50.2344 208.391 50.9141 209.094 51.7578C209.844 52.6016 210.617 53.5625 211.414 54.6406C212.164 55.625 212.773 56.7031 213.242 57.875C213.711 59.0469 214.109 60.1719 214.438 61.25C214.812 59.2812 215.211 57.3594 215.633 55.4844C216.055 53.6094 216.453 51.8516 216.828 50.2109C216.547 50.1641 216.266 50.1406 215.984 50.1406C215.75 50.0938 215.492 50.0703 215.211 50.0703ZM241.227 69.125C239.445 69.125 237.992 68.8438 236.867 68.2812C235.742 67.7188 234.852 67.0391 234.195 66.2422C233.586 65.3984 233.141 64.5078 232.859 63.5703C232.625 62.5859 232.508 61.6953 232.508 60.8984C232.508 59.4922 232.625 58.0156 232.859 56.4688C233.094 54.875 233.375 53.4219 233.703 52.1094C234.031 50.75 234.312 49.6016 234.547 48.6641C234.828 47.7266 235.016 47.1406 235.109 46.9062C235.531 45.5469 236.07 44.375 236.727 43.3906C237.43 42.3594 238.391 41.6562 239.609 41.2812C240.078 41.1875 240.57 41.0938 241.086 41C241.508 40.9531 241.93 40.9297 242.352 40.9297C242.82 40.9297 243.242 41 243.617 41.1406C242.352 44.375 241.344 47.0703 240.594 49.2266C239.891 51.3828 239.352 53.1406 238.977 54.5C238.555 56.0469 238.297 57.2891 238.203 58.2266C237.969 60.3359 238.156 61.9297 238.766 63.0078C239.375 64.0859 240.617 64.625 242.492 64.625C243.711 64.625 244.883 64.1797 246.008 63.2891C247.133 62.3516 248.164 61.1562 249.102 59.7031C248.961 58.9531 248.891 58.1797 248.891 57.3828C248.891 55.8828 249.008 54.4297 249.242 53.0234C249.523 51.5703 249.828 50.2344 250.156 49.0156C250.531 47.75 250.906 46.625 251.281 45.6406C251.703 44.6562 252.055 43.8828 252.336 43.3203C252.852 42.1953 253.32 41.5156 253.742 41.2812C254.164 41 254.844 40.8359 255.781 40.7891C256.156 40.7422 256.461 40.7422 256.695 40.7891C256.977 40.7891 257.211 40.8125 257.398 40.8594C257.961 41 258.242 41.2812 258.242 41.7031C258.242 42.4531 258.195 43.5781 258.102 45.0781C258.008 46.5781 257.727 48.125 257.258 49.7188C256.93 51.0312 256.602 52.1562 256.273 53.0938C255.992 53.9844 255.711 54.7578 255.43 55.4141C255.148 56.0234 254.867 56.5391 254.586 56.9609C254.305 57.3359 254.047 57.6875 253.812 58.0156C253.906 59.4219 254.023 60.5469 254.164 61.3906C254.305 62.2344 254.469 62.8906 254.656 63.3594C254.891 63.7812 255.148 64.0859 255.43 64.2734C255.758 64.4141 256.109 64.4844 256.484 64.4844C257.141 64.4844 257.914 64.1797 258.805 63.5703C259.695 62.9141 260.609 62.1172 261.547 61.1797C262.531 60.1953 263.492 59.1406 264.43 58.0156C265.414 56.8438 266.305 55.7422 267.102 54.7109C267.898 53.6797 268.578 52.7891 269.141 52.0391C269.703 51.2422 270.055 50.75 270.195 50.5625C270.523 50.1406 270.828 49.8828 271.109 49.7891C271.438 49.6953 271.695 49.7422 271.883 49.9297C272.07 50.0703 272.164 50.3281 272.164 50.7031C272.211 51.0312 272.117 51.4062 271.883 51.8281C270.945 53.6094 269.773 55.5078 268.367 57.5234C267.008 59.4922 265.531 61.3203 263.938 63.0078C262.391 64.6953 260.82 66.1016 259.227 67.2266C257.633 68.3516 256.133 68.9141 254.727 68.9141C253.461 68.9141 252.453 68.4922 251.703 67.6484C251 66.7578 250.391 65.4922 249.875 63.8516C248.797 65.5391 247.531 66.8516 246.078 67.7891C244.625 68.6797 243.008 69.125 241.227 69.125ZM254.797 34.4609C253.812 34.4609 253.109 34.2734 252.688 33.8984C252.312 33.5234 252.125 33.0078 252.125 32.3516C252.125 31.9297 252.266 31.5078 252.547 31.0859C252.828 30.6641 253.18 30.2891 253.602 29.9609C254.07 29.6328 254.586 29.375 255.148 29.1875C255.758 29 256.367 28.9062 256.977 28.9062C258.148 28.9062 258.945 29.1172 259.367 29.5391C259.836 29.9141 260.07 30.4297 260.07 31.0859C260.07 31.6016 259.883 32.0703 259.508 32.4922C259.18 32.9141 258.758 33.2656 258.242 33.5469C257.727 33.8281 257.164 34.0625 256.555 34.25C255.945 34.3906 255.359 34.4609 254.797 34.4609ZM248.961 30.6641C248.961 31.5547 248.422 32.4453 247.344 33.3359C246.312 34.1797 244.93 34.6016 243.195 34.6016C242.305 34.6016 241.719 34.4141 241.438 34.0391C241.156 33.6172 241.016 33.1953 241.016 32.7734C241.016 31.8828 241.438 30.9922 242.281 30.1016C243.125 29.2109 244.367 28.7656 246.008 28.7656C246.758 28.7656 247.438 28.8828 248.047 29.1172C248.656 29.3516 248.961 29.8672 248.961 30.6641ZM265.203 66.875C267.266 58.2031 268.906 51.2422 270.125 45.9922C271.391 40.7422 272.352 36.7344 273.008 33.9688C273.758 30.6875 274.273 28.4141 274.555 27.1484C274.695 26.2578 274.812 25.3906 274.906 24.5469C275 23.7969 275.047 23.0234 275.047 22.2266C275.047 21.4297 274.977 20.7031 274.836 20.0469C275.211 19.8125 275.609 19.625 276.031 19.4844C276.5 19.3438 276.945 19.2266 277.367 19.1328C277.883 18.9922 278.398 18.875 278.914 18.7812C279.43 18.6875 279.898 18.6406 280.32 18.6406C280.695 18.6406 281.047 18.6875 281.375 18.7812C281.703 18.8281 281.914 18.9687 282.008 19.2031C282.289 19.4375 282.406 19.9062 282.359 20.6094C282.359 21.3125 282.312 22.0391 282.219 22.7891C282.031 23.6797 281.82 24.6406 281.586 25.6719C281.023 27.6875 280.25 30.5938 279.266 34.3906C278.422 37.625 277.273 42.0312 275.82 47.6094C274.414 53.1875 272.633 60.2188 270.477 68.7031C270.242 68.9375 269.961 69.1016 269.633 69.1953C269.305 69.2891 269 69.3359 268.719 69.3359C268.391 69.3359 268.039 69.3125 267.664 69.2656C267.336 69.1719 267.008 69.0312 266.68 68.8438C266.398 68.6562 266.117 68.3984 265.836 68.0703C265.555 67.7891 265.344 67.3906 265.203 66.875ZM280.953 66.875C283.016 58.2031 284.656 51.2422 285.875 45.9922C287.141 40.7422 288.102 36.7344 288.758 33.9688C289.508 30.6875 290.023 28.4141 290.305 27.1484C290.445 26.2578 290.562 25.3906 290.656 24.5469C290.75 23.7969 290.797 23.0234 290.797 22.2266C290.797 21.4297 290.727 20.7031 290.586 20.0469C290.961 19.8125 291.359 19.625 291.781 19.4844C292.25 19.3438 292.695 19.2266 293.117 19.1328C293.633 18.9922 294.148 18.875 294.664 18.7812C295.18 18.6875 295.648 18.6406 296.07 18.6406C296.445 18.6406 296.797 18.6875 297.125 18.7812C297.453 18.8281 297.664 18.9687 297.758 19.2031C298.039 19.4375 298.156 19.9062 298.109 20.6094C298.109 21.3125 298.062 22.0391 297.969 22.7891C297.781 23.6797 297.57 24.6406 297.336 25.6719C296.773 27.6875 296 30.5938 295.016 34.3906C294.172 37.625 293.023 42.0312 291.57 47.6094C290.164 53.1875 288.383 60.2188 286.227 68.7031C285.992 68.9375 285.711 69.1016 285.383 69.1953C285.055 69.2891 284.75 69.3359 284.469 69.3359C284.141 69.3359 283.789 69.3125 283.414 69.2656C283.086 69.1719 282.758 69.0312 282.43 68.8438C282.148 68.6562 281.867 68.3984 281.586 68.0703C281.305 67.7891 281.094 67.3906 280.953 66.875ZM329.609 53.375C328.203 55.4375 326.609 57.4531 324.828 59.4219C323.047 61.3438 321.148 63.0781 319.133 64.625C317.164 66.125 315.125 67.3438 313.016 68.2812C310.953 69.2188 308.938 69.6875 306.969 69.6875C305.938 69.6875 304.812 69.4297 303.594 68.9141C302.422 68.4453 301.344 67.6953 300.359 66.6641C299.375 65.6328 298.578 64.2969 297.969 62.6562C297.406 61.0156 297.242 59.0234 297.477 56.6797C297.664 54.7578 298.25 52.7422 299.234 50.6328C300.266 48.4766 301.508 46.5078 302.961 44.7266C304.461 42.9453 306.125 41.4688 307.953 40.2969C309.828 39.125 311.703 38.5391 313.578 38.5391C315.359 38.5391 316.648 38.9844 317.445 39.875C318.242 40.7656 318.594 41.8672 318.5 43.1797C318.359 44.6328 317.938 45.9688 317.234 47.1875C316.578 48.4062 315.781 49.5078 314.844 50.4922C313.906 51.4766 312.898 52.3672 311.82 53.1641C310.789 53.9609 309.805 54.6875 308.867 55.3438C307.836 56.0469 306.852 56.7266 305.914 57.3828C304.977 57.9922 304.156 58.5547 303.453 59.0703C303.5 60.2422 303.711 61.2266 304.086 62.0234C304.461 62.8203 304.93 63.4766 305.492 63.9922C306.055 64.4609 306.688 64.8125 307.391 65.0469C308.141 65.2344 308.891 65.3281 309.641 65.3281C311.234 65.3281 312.898 64.8359 314.633 63.8516C316.367 62.8203 318.055 61.6016 319.695 60.1953C321.383 58.7422 322.93 57.2422 324.336 55.6953C325.789 54.1484 326.984 52.8125 327.922 51.6875C328.25 51.3125 328.578 51.1016 328.906 51.0547C329.281 50.9609 329.562 51.0078 329.75 51.1953C329.984 51.3359 330.102 51.6172 330.102 52.0391C330.102 52.4141 329.938 52.8594 329.609 53.375ZM311.609 42.5469C311.047 42.5469 310.367 42.8281 309.57 43.3906C308.82 43.9531 308.07 44.7734 307.32 45.8516C306.57 46.8828 305.867 48.1719 305.211 49.7188C304.555 51.2188 304.062 52.9531 303.734 54.9219C304.297 54.5 304.906 54.0781 305.562 53.6562C306.219 53.1875 306.875 52.6953 307.531 52.1797C309.547 50.6328 310.953 49.2734 311.75 48.1016C312.547 46.9297 312.992 45.9219 313.086 45.0781C313.18 44.1875 313.086 43.5547 312.805 43.1797C312.523 42.7578 312.125 42.5469 311.609 42.5469ZM321.875 67.6484C321.547 68.1641 321.195 68.4922 320.82 68.6328C320.398 68.8203 320.047 68.8438 319.766 68.7031C319.438 68.6094 319.227 68.375 319.133 68C319.039 67.625 319.133 67.1562 319.414 66.5938C319.555 66.3125 319.883 65.6797 320.398 64.6953C320.867 63.7109 321.453 62.5391 322.156 61.1797C322.812 59.7734 323.539 58.2734 324.336 56.6797C325.133 55.0391 325.883 53.4922 326.586 52.0391C327.336 50.5859 328.016 49.2969 328.625 48.1719C329.234 47 329.68 46.1562 329.961 45.6406C329.445 45.1719 329.094 44.8438 328.906 44.6562C328.719 44.4219 328.578 43.9531 328.484 43.25C328.391 42.6406 328.531 41.8438 328.906 40.8594C329.281 39.875 329.773 38.9375 330.383 38.0469C330.992 37.1094 331.672 36.3125 332.422 35.6562C333.172 35 333.898 34.6719 334.602 34.6719C335.914 34.6719 336.828 35.0938 337.344 35.9375C337.906 36.7812 338.234 37.6484 338.328 38.5391C338.422 39.1484 338.375 39.9219 338.188 40.8594C338 41.7969 337.648 42.6406 337.133 43.3906C337.273 43.4844 337.461 43.6016 337.695 43.7422C337.93 43.8359 338.305 43.8828 338.82 43.8828C339.57 43.8828 340.086 43.8359 340.367 43.7422C340.695 43.6484 341.188 43.6016 341.844 43.6016C342.641 43.6016 343.297 43.8125 343.812 44.2344C344.328 44.6094 344.75 45.1016 345.078 45.7109C345.406 46.2734 345.641 46.9062 345.781 47.6094C345.969 48.2656 346.086 48.875 346.133 49.4375C346.273 50.6094 345.969 51.8281 345.219 53.0938C344.469 54.3594 343.555 55.7422 342.477 57.2422C341.82 58.1797 341.164 59.2344 340.508 60.4062C339.852 61.5781 339.57 62.6328 339.664 63.5703C339.758 64.1797 339.922 64.6719 340.156 65.0469C340.391 65.4219 341.047 65.6094 342.125 65.6094C342.922 65.6094 343.789 65.3281 344.727 64.7656C345.711 64.1562 346.695 63.4062 347.68 62.5156C348.711 61.5781 349.719 60.5703 350.703 59.4922C351.688 58.3672 352.602 57.2891 353.445 56.2578C354.289 55.1797 354.992 54.2188 355.555 53.375C356.164 52.5312 356.609 51.9219 356.891 51.5469C357.125 51.1719 357.43 50.9141 357.805 50.7734C358.18 50.6328 358.508 50.6328 358.789 50.7734C359.07 50.9141 359.234 51.1953 359.281 51.6172C359.375 52.0391 359.211 52.6016 358.789 53.3047C358.508 53.7734 358.016 54.5234 357.312 55.5547C356.656 56.5859 355.836 57.7344 354.852 59C353.914 60.2656 352.859 61.5781 351.688 62.9375C350.516 64.25 349.273 65.4688 347.961 66.5938C346.695 67.6719 345.406 68.5625 344.094 69.2656C342.828 69.9688 341.609 70.3203 340.438 70.3203C339.219 70.3203 338.211 70.0859 337.414 69.6172C336.617 69.1484 335.961 68.5859 335.445 67.9297C334.977 67.2266 334.625 66.4766 334.391 65.6797C334.203 64.8359 334.133 64.0625 334.18 63.3594C334.227 62.7969 334.367 62.2109 334.602 61.6016C334.883 60.9453 335.188 60.2891 335.516 59.6328C335.891 58.9297 336.266 58.25 336.641 57.5938C337.062 56.8906 337.438 56.2109 337.766 55.5547C338.562 54.1953 339.195 53.0469 339.664 52.1094C340.18 51.125 340.438 50.3047 340.438 49.6484C340.438 49.2266 340.344 48.8516 340.156 48.5234C339.969 48.1953 339.664 48.0312 339.242 48.0312C338.961 48.0312 338.75 48.0547 338.609 48.1016C338.516 48.1016 338.398 48.1016 338.258 48.1016C338.164 48.1016 338 48.125 337.766 48.1719C337.578 48.1719 337.273 48.1719 336.852 48.1719C336.242 48.1719 335.727 48.0781 335.305 47.8906C334.883 47.7031 334.484 47.5625 334.109 47.4688C333.922 47.7969 333.5 48.5 332.844 49.5781C332.188 50.6562 331.414 51.9219 330.523 53.375C329.68 54.8281 328.766 56.3516 327.781 57.9453C326.844 59.5391 325.953 61.0391 325.109 62.4453C324.266 63.8047 323.562 64.9766 323 65.9609C322.391 66.8984 322.016 67.4609 321.875 67.6484Z" fill="black"/>
</svg>
